<?xml version="1.0" encoding="UTF-8"?><!DOCTYPE svg PUBLIC "-//W3C//DTD SVG 1.1//EN" "http://www.w3.org/Graphics/SVG/1.1/DTD/svg11.dtd"><svg xmlns="http://www.w3.org/2000/svg"><symbol id="email" viewBox="0 0 1792 1792"><path d="M1792 710v794q0 66-47 113t-113 47h-1472q-66 0-113-47t-47-113v-794q44 49 101 87 362 246 497 345 57 42 92.5 65.5t94.5 48 110 24.5h2q51 0 110-24.5t94.5-48 92.5-65.5q170-123 498-345 57-39 100-87zm0-294q0 79-49 151t-122 123q-376 261-468 325-10 7-42.5 30.5t-54 38-52 32.5-57.5 27-50 9h-2q-23 0-50-9t-57.5-27-52-32.5-54-38-42.5-30.5q-91-64-262-182.5t-205-142.5q-62-42-117-115.5t-55-136.5q0-78 41.5-130t118.5-52h1472q65 0 112.5 47t47.5 113z"/></symbol><symbol id="twitter" viewBox="0 0 1792 1792"><path d="M1684 408q-67 98-162 167 1 14 1 42 0 130-38 259.5t-115.5 248.5-184.5 210.5-258 146-323 54.5q-271 0-496-145 35 4 78 4 225 0 401-138-105-2-188-64.5t-114-159.5q33 5 61 5 43 0 85-11-112-23-185.5-111.5t-73.5-205.5v-4q68 38 146 41-66-44-105-115t-39-154q0-88 44-163 121 149 294.5 238.5t371.5 99.5q-8-38-8-74 0-134 94.5-228.5t228.5-94.5q140 0 236 102 109-21 205-78-37 115-142 178 93-10 186-50z"/></symbol><symbol id="xing" viewBox="0 0 1792 1792"><path d="M789 667q-10 18-257 456-27 46-65 46h-239q-21 0-31-17t0-36l253-448q1 0 0-1l-161-279q-12-22-1-37 9-15 32-15h239q40 0 66 45zm806-642q11 16 0 37l-528 934v1l336 615q11 20 1 37-10 15-32 15h-239q-42 0-66-45l-339-622q18-32 531-942 25-45 64-45h241q22 0 31 15z"/></symbol></svg>